<mxfile host="app.diagrams.net" agent="Mozilla/5.0 (Windows NT 10.0; Win64; x64) AppleWebKit/537.36 (KHTML, like Gecko) Chrome/139.0.0.0 Safari/537.36" version="28.1.0">
  <diagram id="C5RBs43oDa-KdzZeNtuy" name="Page-1">
    <mxGraphModel dx="806" dy="893" grid="1" gridSize="10" guides="1" tooltips="1" connect="1" arrows="1" fold="1" page="1" pageScale="1" pageWidth="827" pageHeight="1169" math="0" shadow="0">
      <root>
        <mxCell id="WIyWlLk6GJQsqaUBKTNV-0" />
        <mxCell id="WIyWlLk6GJQsqaUBKTNV-1" parent="WIyWlLk6GJQsqaUBKTNV-0" />
        <mxCell id="ILR4_PUnB1xilyPa_fqO-0" value="" style="strokeWidth=2;html=1;shape=mxgraph.flowchart.start_2;whiteSpace=wrap;fillColor=light-dark(#2c2121, #ededed);fillStyle=auto;" vertex="1" parent="WIyWlLk6GJQsqaUBKTNV-1">
          <mxGeometry x="120" y="40" width="40" height="40" as="geometry" />
        </mxCell>
        <mxCell id="ILR4_PUnB1xilyPa_fqO-1" value="Cập nhật&amp;nbsp;&lt;div&gt;thành công?&lt;/div&gt;" style="strokeWidth=2;html=1;shape=mxgraph.flowchart.decision;whiteSpace=wrap;" vertex="1" parent="WIyWlLk6GJQsqaUBKTNV-1">
          <mxGeometry x="330" y="520" width="100" height="100" as="geometry" />
        </mxCell>
        <mxCell id="ILR4_PUnB1xilyPa_fqO-2" value="Thông báo lỗi" style="rounded=1;whiteSpace=wrap;html=1;absoluteArcSize=1;arcSize=14;strokeWidth=2;" vertex="1" parent="WIyWlLk6GJQsqaUBKTNV-1">
          <mxGeometry x="490" y="550" width="120" height="40" as="geometry" />
        </mxCell>
        <mxCell id="ILR4_PUnB1xilyPa_fqO-4" value="" style="endArrow=open;startArrow=none;endFill=0;startFill=0;endSize=8;html=1;verticalAlign=bottom;labelBackgroundColor=none;strokeWidth=1;rounded=0;exitX=0.5;exitY=1;exitDx=0;exitDy=0;exitPerimeter=0;entryX=0.5;entryY=0;entryDx=0;entryDy=0;" edge="1" parent="WIyWlLk6GJQsqaUBKTNV-1" source="ILR4_PUnB1xilyPa_fqO-0" target="ILR4_PUnB1xilyPa_fqO-6">
          <mxGeometry width="160" relative="1" as="geometry">
            <mxPoint x="100" y="230" as="sourcePoint" />
            <mxPoint x="140" y="130" as="targetPoint" />
          </mxGeometry>
        </mxCell>
        <mxCell id="ILR4_PUnB1xilyPa_fqO-6" value="Đăng nhập và Vào trang Quản lý Đơn hàng" style="rounded=1;whiteSpace=wrap;html=1;absoluteArcSize=1;arcSize=14;strokeWidth=2;" vertex="1" parent="WIyWlLk6GJQsqaUBKTNV-1">
          <mxGeometry x="72.5" y="120" width="135" height="40" as="geometry" />
        </mxCell>
        <mxCell id="ILR4_PUnB1xilyPa_fqO-7" style="edgeStyle=orthogonalEdgeStyle;rounded=0;orthogonalLoop=1;jettySize=auto;html=1;exitX=0.5;exitY=1;exitDx=0;exitDy=0;" edge="1" parent="WIyWlLk6GJQsqaUBKTNV-1" source="ILR4_PUnB1xilyPa_fqO-6" target="ILR4_PUnB1xilyPa_fqO-6">
          <mxGeometry relative="1" as="geometry" />
        </mxCell>
        <mxCell id="ILR4_PUnB1xilyPa_fqO-8" value="Hiển thị danh sách đơn hàng" style="rounded=1;whiteSpace=wrap;html=1;absoluteArcSize=1;arcSize=14;strokeWidth=2;" vertex="1" parent="WIyWlLk6GJQsqaUBKTNV-1">
          <mxGeometry x="320" y="120" width="120" height="40" as="geometry" />
        </mxCell>
        <mxCell id="ILR4_PUnB1xilyPa_fqO-9" value="" style="endArrow=open;startArrow=none;endFill=0;startFill=0;endSize=8;html=1;verticalAlign=bottom;labelBackgroundColor=none;strokeWidth=1;rounded=0;exitX=1;exitY=0.5;exitDx=0;exitDy=0;entryX=0;entryY=0.5;entryDx=0;entryDy=0;" edge="1" parent="WIyWlLk6GJQsqaUBKTNV-1" source="ILR4_PUnB1xilyPa_fqO-6" target="ILR4_PUnB1xilyPa_fqO-8">
          <mxGeometry width="160" relative="1" as="geometry">
            <mxPoint x="230" y="120" as="sourcePoint" />
            <mxPoint x="230" y="160" as="targetPoint" />
          </mxGeometry>
        </mxCell>
        <mxCell id="ILR4_PUnB1xilyPa_fqO-10" value="Lọc/Tìm kiếm hoặc chọn một đơn hàng" style="rounded=1;whiteSpace=wrap;html=1;absoluteArcSize=1;arcSize=14;strokeWidth=2;" vertex="1" parent="WIyWlLk6GJQsqaUBKTNV-1">
          <mxGeometry x="80" y="200" width="120" height="40" as="geometry" />
        </mxCell>
        <mxCell id="ILR4_PUnB1xilyPa_fqO-11" value="" style="endArrow=open;startArrow=none;endFill=0;startFill=0;endSize=8;html=1;verticalAlign=bottom;labelBackgroundColor=none;strokeWidth=1;rounded=0;exitX=0.5;exitY=1;exitDx=0;exitDy=0;entryX=1;entryY=0.5;entryDx=0;entryDy=0;" edge="1" parent="WIyWlLk6GJQsqaUBKTNV-1" source="ILR4_PUnB1xilyPa_fqO-8" target="ILR4_PUnB1xilyPa_fqO-10">
          <mxGeometry width="160" relative="1" as="geometry">
            <mxPoint x="380" y="220" as="sourcePoint" />
            <mxPoint x="492" y="220" as="targetPoint" />
            <Array as="points">
              <mxPoint x="380" y="220" />
            </Array>
          </mxGeometry>
        </mxCell>
        <mxCell id="ILR4_PUnB1xilyPa_fqO-12" value="Nhấn &#39;Cập nhật trạng thái&#39;" style="rounded=1;whiteSpace=wrap;html=1;absoluteArcSize=1;arcSize=14;strokeWidth=2;" vertex="1" parent="WIyWlLk6GJQsqaUBKTNV-1">
          <mxGeometry x="80" y="280" width="120" height="40" as="geometry" />
        </mxCell>
        <mxCell id="ILR4_PUnB1xilyPa_fqO-13" value="" style="endArrow=open;startArrow=none;endFill=0;startFill=0;endSize=8;html=1;verticalAlign=bottom;labelBackgroundColor=none;strokeWidth=1;rounded=0;exitX=0.5;exitY=1;exitDx=0;exitDy=0;entryX=0.5;entryY=0;entryDx=0;entryDy=0;" edge="1" parent="WIyWlLk6GJQsqaUBKTNV-1" source="ILR4_PUnB1xilyPa_fqO-10" target="ILR4_PUnB1xilyPa_fqO-12">
          <mxGeometry width="160" relative="1" as="geometry">
            <mxPoint x="140" y="100" as="sourcePoint" />
            <mxPoint x="140" y="140" as="targetPoint" />
          </mxGeometry>
        </mxCell>
        <mxCell id="ILR4_PUnB1xilyPa_fqO-14" value="Hiển thị danh sách trạng thái" style="rounded=1;whiteSpace=wrap;html=1;absoluteArcSize=1;arcSize=14;strokeWidth=2;" vertex="1" parent="WIyWlLk6GJQsqaUBKTNV-1">
          <mxGeometry x="320" y="280" width="120" height="40" as="geometry" />
        </mxCell>
        <mxCell id="ILR4_PUnB1xilyPa_fqO-15" value="" style="endArrow=open;startArrow=none;endFill=0;startFill=0;endSize=8;html=1;verticalAlign=bottom;labelBackgroundColor=none;strokeWidth=1;rounded=0;exitX=1;exitY=0.5;exitDx=0;exitDy=0;entryX=0;entryY=0.5;entryDx=0;entryDy=0;" edge="1" parent="WIyWlLk6GJQsqaUBKTNV-1" source="ILR4_PUnB1xilyPa_fqO-12" target="ILR4_PUnB1xilyPa_fqO-14">
          <mxGeometry width="160" relative="1" as="geometry">
            <mxPoint x="260" y="340" as="sourcePoint" />
            <mxPoint x="260" y="380" as="targetPoint" />
          </mxGeometry>
        </mxCell>
        <mxCell id="ILR4_PUnB1xilyPa_fqO-16" value="Chọn trạng thái mới" style="rounded=1;whiteSpace=wrap;html=1;absoluteArcSize=1;arcSize=14;strokeWidth=2;" vertex="1" parent="WIyWlLk6GJQsqaUBKTNV-1">
          <mxGeometry x="80" y="360" width="120" height="40" as="geometry" />
        </mxCell>
        <mxCell id="ILR4_PUnB1xilyPa_fqO-17" value="" style="endArrow=open;startArrow=none;endFill=0;startFill=0;endSize=8;html=1;verticalAlign=bottom;labelBackgroundColor=none;strokeWidth=1;rounded=0;exitX=0.5;exitY=1;exitDx=0;exitDy=0;entryX=1;entryY=0.5;entryDx=0;entryDy=0;" edge="1" parent="WIyWlLk6GJQsqaUBKTNV-1" source="ILR4_PUnB1xilyPa_fqO-14" target="ILR4_PUnB1xilyPa_fqO-16">
          <mxGeometry width="160" relative="1" as="geometry">
            <mxPoint x="370" y="360" as="sourcePoint" />
            <mxPoint x="490" y="360" as="targetPoint" />
            <Array as="points">
              <mxPoint x="380" y="380" />
            </Array>
          </mxGeometry>
        </mxCell>
        <mxCell id="ILR4_PUnB1xilyPa_fqO-18" value="Nhấn &#39;Cập nhật&#39;" style="rounded=1;whiteSpace=wrap;html=1;absoluteArcSize=1;arcSize=14;strokeWidth=2;" vertex="1" parent="WIyWlLk6GJQsqaUBKTNV-1">
          <mxGeometry x="80" y="440" width="120" height="40" as="geometry" />
        </mxCell>
        <mxCell id="ILR4_PUnB1xilyPa_fqO-19" value="" style="endArrow=open;startArrow=none;endFill=0;startFill=0;endSize=8;html=1;verticalAlign=bottom;labelBackgroundColor=none;strokeWidth=1;rounded=0;exitX=0.5;exitY=1;exitDx=0;exitDy=0;entryX=0.5;entryY=0;entryDx=0;entryDy=0;" edge="1" parent="WIyWlLk6GJQsqaUBKTNV-1" source="ILR4_PUnB1xilyPa_fqO-16" target="ILR4_PUnB1xilyPa_fqO-18">
          <mxGeometry width="160" relative="1" as="geometry">
            <mxPoint x="220" y="410" as="sourcePoint" />
            <mxPoint x="220" y="450" as="targetPoint" />
          </mxGeometry>
        </mxCell>
        <mxCell id="ILR4_PUnB1xilyPa_fqO-20" value="Cập nhật trạng thái trong CSDL" style="rounded=1;whiteSpace=wrap;html=1;absoluteArcSize=1;arcSize=14;strokeWidth=2;" vertex="1" parent="WIyWlLk6GJQsqaUBKTNV-1">
          <mxGeometry x="320" y="440" width="120" height="40" as="geometry" />
        </mxCell>
        <mxCell id="ILR4_PUnB1xilyPa_fqO-21" value="" style="endArrow=open;startArrow=none;endFill=0;startFill=0;endSize=8;html=1;verticalAlign=bottom;labelBackgroundColor=none;strokeWidth=1;rounded=0;exitX=1;exitY=0.5;exitDx=0;exitDy=0;entryX=0;entryY=0.5;entryDx=0;entryDy=0;" edge="1" parent="WIyWlLk6GJQsqaUBKTNV-1" source="ILR4_PUnB1xilyPa_fqO-18" target="ILR4_PUnB1xilyPa_fqO-20">
          <mxGeometry width="160" relative="1" as="geometry">
            <mxPoint x="320" y="490" as="sourcePoint" />
            <mxPoint x="320" y="530" as="targetPoint" />
          </mxGeometry>
        </mxCell>
        <mxCell id="ILR4_PUnB1xilyPa_fqO-22" value="" style="endArrow=open;startArrow=none;endFill=0;startFill=0;endSize=8;html=1;verticalAlign=bottom;labelBackgroundColor=none;strokeWidth=1;rounded=0;exitX=1;exitY=0.5;exitDx=0;exitDy=0;entryX=0;entryY=0.5;entryDx=0;entryDy=0;exitPerimeter=0;" edge="1" parent="WIyWlLk6GJQsqaUBKTNV-1" source="ILR4_PUnB1xilyPa_fqO-1" target="ILR4_PUnB1xilyPa_fqO-2">
          <mxGeometry width="160" relative="1" as="geometry">
            <mxPoint x="470" y="660" as="sourcePoint" />
            <mxPoint x="590" y="660" as="targetPoint" />
          </mxGeometry>
        </mxCell>
        <mxCell id="ILR4_PUnB1xilyPa_fqO-23" value="No" style="edgeLabel;html=1;align=center;verticalAlign=middle;resizable=0;points=[];" vertex="1" connectable="0" parent="ILR4_PUnB1xilyPa_fqO-22">
          <mxGeometry x="-0.125" y="-2" relative="1" as="geometry">
            <mxPoint as="offset" />
          </mxGeometry>
        </mxCell>
        <mxCell id="ILR4_PUnB1xilyPa_fqO-24" value="" style="ellipse;html=1;shape=endState;fillColor=strokeColor;" vertex="1" parent="WIyWlLk6GJQsqaUBKTNV-1">
          <mxGeometry x="535" y="630" width="30" height="30" as="geometry" />
        </mxCell>
        <mxCell id="ILR4_PUnB1xilyPa_fqO-25" value="" style="endArrow=open;startArrow=none;endFill=0;startFill=0;endSize=8;html=1;verticalAlign=bottom;labelBackgroundColor=none;strokeWidth=1;rounded=0;exitX=0.5;exitY=1;exitDx=0;exitDy=0;entryX=0.5;entryY=0;entryDx=0;entryDy=0;" edge="1" parent="WIyWlLk6GJQsqaUBKTNV-1" source="ILR4_PUnB1xilyPa_fqO-2" target="ILR4_PUnB1xilyPa_fqO-24">
          <mxGeometry width="160" relative="1" as="geometry">
            <mxPoint x="590" y="460" as="sourcePoint" />
            <mxPoint x="710" y="460" as="targetPoint" />
          </mxGeometry>
        </mxCell>
        <mxCell id="ILR4_PUnB1xilyPa_fqO-26" value="" style="endArrow=open;startArrow=none;endFill=0;startFill=0;endSize=8;html=1;verticalAlign=bottom;labelBackgroundColor=none;strokeWidth=1;rounded=0;exitX=0.5;exitY=1;exitDx=0;exitDy=0;" edge="1" parent="WIyWlLk6GJQsqaUBKTNV-1" source="ILR4_PUnB1xilyPa_fqO-20" target="ILR4_PUnB1xilyPa_fqO-1">
          <mxGeometry width="160" relative="1" as="geometry">
            <mxPoint x="570" y="480" as="sourcePoint" />
            <mxPoint x="690" y="480" as="targetPoint" />
          </mxGeometry>
        </mxCell>
        <mxCell id="ILR4_PUnB1xilyPa_fqO-27" value="" style="endArrow=open;startArrow=none;endFill=0;startFill=0;endSize=8;html=1;verticalAlign=bottom;labelBackgroundColor=none;strokeWidth=1;rounded=0;exitX=0.5;exitY=1;exitDx=0;exitDy=0;exitPerimeter=0;entryX=0.5;entryY=0;entryDx=0;entryDy=0;" edge="1" parent="WIyWlLk6GJQsqaUBKTNV-1" source="ILR4_PUnB1xilyPa_fqO-1" target="ILR4_PUnB1xilyPa_fqO-29">
          <mxGeometry width="160" relative="1" as="geometry">
            <mxPoint x="360" y="770" as="sourcePoint" />
            <mxPoint x="380" y="680" as="targetPoint" />
          </mxGeometry>
        </mxCell>
        <mxCell id="ILR4_PUnB1xilyPa_fqO-28" value="Yes" style="edgeLabel;html=1;align=center;verticalAlign=middle;resizable=0;points=[];" vertex="1" connectable="0" parent="ILR4_PUnB1xilyPa_fqO-27">
          <mxGeometry x="-0.1333" y="1" relative="1" as="geometry">
            <mxPoint as="offset" />
          </mxGeometry>
        </mxCell>
        <mxCell id="ILR4_PUnB1xilyPa_fqO-29" value="Tải lại danh sách đơn hàng" style="rounded=1;whiteSpace=wrap;html=1;absoluteArcSize=1;arcSize=14;strokeWidth=2;" vertex="1" parent="WIyWlLk6GJQsqaUBKTNV-1">
          <mxGeometry x="320" y="680" width="120" height="40" as="geometry" />
        </mxCell>
        <mxCell id="ILR4_PUnB1xilyPa_fqO-31" value="Admin" style="swimlane;startSize=20;whiteSpace=wrap;html=1;" vertex="1" parent="WIyWlLk6GJQsqaUBKTNV-1">
          <mxGeometry x="60" width="220" height="760" as="geometry" />
        </mxCell>
        <mxCell id="ILR4_PUnB1xilyPa_fqO-32" value="Hệ thống" style="swimlane;startSize=20;whiteSpace=wrap;html=1;" vertex="1" parent="WIyWlLk6GJQsqaUBKTNV-1">
          <mxGeometry x="280" width="340" height="760" as="geometry" />
        </mxCell>
        <mxCell id="ILR4_PUnB1xilyPa_fqO-33" value="" style="ellipse;html=1;shape=endState;fillColor=strokeColor;" vertex="1" parent="ILR4_PUnB1xilyPa_fqO-32">
          <mxGeometry x="210" y="685" width="30" height="30" as="geometry" />
        </mxCell>
        <mxCell id="ILR4_PUnB1xilyPa_fqO-34" value="" style="endArrow=open;startArrow=none;endFill=0;startFill=0;endSize=8;html=1;verticalAlign=bottom;labelBackgroundColor=none;strokeWidth=1;rounded=0;exitX=1;exitY=0.5;exitDx=0;exitDy=0;entryX=0;entryY=0.5;entryDx=0;entryDy=0;" edge="1" parent="WIyWlLk6GJQsqaUBKTNV-1" source="ILR4_PUnB1xilyPa_fqO-29" target="ILR4_PUnB1xilyPa_fqO-33">
          <mxGeometry width="160" relative="1" as="geometry">
            <mxPoint x="490" y="660" as="sourcePoint" />
            <mxPoint x="610" y="660" as="targetPoint" />
          </mxGeometry>
        </mxCell>
      </root>
    </mxGraphModel>
  </diagram>
</mxfile>
